<?xml version="1.0" encoding="UTF-8"?>
<svg width="170px" height="48px" viewBox="0 0 170 48" version="1.1" xmlns="http://www.w3.org/2000/svg" xmlns:xlink="http://www.w3.org/1999/xlink">
	<title>logo_color</title>
	<defs>
		<polygon id="path-1" points="0 46 169.99 46 169.99 0.704 0 0.704"></polygon>
	</defs>
	<g id="Page-1" stroke="none" stroke-width="1" fill="none" fill-rule="evenodd">
		<g id="logo_color">
			<polygon id="Fill-1" fill="#0CA2D8" points="65.0537 6.6899 65.0537 10.0719 69.5947 10.0719 69.5947 12.2159 65.0537 12.2159 65.0537 15.7909 70.1737 15.7909 70.1737 17.9939 62.3487 17.9939 62.3487 4.4879 70.1737 4.4879 70.1737 6.6899"></polygon>
			<polygon id="Fill-2" fill="#0CA2D8" points="77.1885 15.5014 79.8935 7.2894 82.7725 7.2894 78.8115 17.9934 75.5265 17.9934 71.5845 7.2894 74.4835 7.2894"></polygon>
			<g id="Group-28" transform="translate(0.000000, 0.296500)">
				<path d="M91.544,11.3406 C91.531,10.6446 91.279,10.0876 90.79,9.6686 C90.301,9.2506 89.701,9.0406 88.993,9.0406 C88.323,9.0406 87.76,9.2436 87.303,9.6496 C86.846,10.0556 86.565,10.6186 86.462,11.3406 L91.544,11.3406 Z M94.269,13.1556 L86.442,13.1556 C86.507,13.9296 86.777,14.5346 87.254,14.9726 C87.731,15.4106 88.317,15.6296 89.013,15.6296 C90.018,15.6296 90.732,15.1976 91.157,14.3346 L94.075,14.3346 C93.766,15.3656 93.173,16.2126 92.298,16.8756 C91.421,17.5396 90.346,17.8706 89.07,17.8706 C88.04,17.8706 87.116,17.6426 86.298,17.1856 C85.48,16.7286 84.842,16.0806 84.385,15.2426 C83.928,14.4056 83.699,13.4406 83.699,12.3446 C83.699,11.2366 83.925,10.2646 84.375,9.4276 C84.826,8.5896 85.457,7.9456 86.269,7.4946 C87.08,7.0446 88.015,6.8196 89.07,6.8196 C90.088,6.8196 90.999,7.0376 91.805,7.4756 C92.609,7.9136 93.234,8.5356 93.679,9.3406 C94.123,10.1456 94.346,11.0696 94.346,12.1126 C94.346,12.4996 94.319,12.8476 94.269,13.1556 L94.269,13.1556 Z" id="Fill-3" fill="#0CA2D8"></path>
				<path d="M100.4805,7.3211 C101.0415,7.0001 101.6815,6.8381 102.4035,6.8381 L102.4035,9.6781 L101.6885,9.6781 C100.8375,9.6781 100.1975,9.8791 99.7655,10.2771 C99.3345,10.6761 99.1185,11.3731 99.1185,12.3641 L99.1185,17.6971 L96.4135,17.6971 L96.4135,6.9931 L99.1185,6.9931 L99.1185,8.6541 C99.4655,8.0881 99.9195,7.6431 100.4805,7.3211" id="Fill-5" fill="#0CA2D8"></path>
				<mask id="mask-2" fill="white">
					<use xlink:href="#path-1"></use>
				</mask>
				<g id="Clip-8"></g>
				<polygon id="Fill-7" fill="#0CA2D8" mask="url(#mask-2)" points="104.316 17.697 107.021 17.697 107.021 3.399 104.316 3.399"></polygon>
				<path d="M117.126,10.6541 C116.868,10.1841 116.521,9.8231 116.082,9.5721 C115.645,9.3211 115.174,9.1951 114.672,9.1951 C114.17,9.1951 113.706,9.3181 113.28,9.5621 C112.855,9.8071 112.511,10.1651 112.247,10.6341 C111.982,11.1051 111.851,11.6621 111.851,12.3061 C111.851,12.9511 111.982,13.5131 112.247,13.9971 C112.511,14.4801 112.858,14.8501 113.29,15.1081 C113.722,15.3661 114.183,15.4941 114.672,15.4941 C115.174,15.4941 115.645,15.3691 116.082,15.1181 C116.521,14.8661 116.868,14.5061 117.126,14.0361 C117.383,13.5651 117.512,13.0021 117.512,12.3441 C117.512,11.6881 117.383,11.1251 117.126,10.6541 M109.735,9.4271 C110.167,8.5901 110.753,7.9461 111.493,7.4951 C112.234,7.0451 113.062,6.8191 113.977,6.8191 C114.774,6.8191 115.474,6.9801 116.072,7.3011 C116.672,7.6241 117.151,8.0301 117.512,8.5191 L117.512,6.9931 L120.236,6.9931 L120.236,17.6971 L117.512,17.6971 L117.512,16.1321 C117.164,16.6341 116.685,17.0501 116.072,17.3791 C115.461,17.7071 114.756,17.8711 113.957,17.8711 C113.055,17.8711 112.234,17.6391 111.493,17.1751 C110.753,16.7121 110.167,16.0581 109.735,15.2151 C109.304,14.3711 109.088,13.4011 109.088,12.3061 C109.088,11.2241 109.304,10.2641 109.735,9.4271" id="Fill-9" fill="#0CA2D8" mask="url(#mask-2)"></path>
				<path d="M124.7198,17.3973 C124.0248,17.0823 123.4738,16.6543 123.0678,16.1133 C122.6618,15.5723 122.4398,14.9723 122.4018,14.3163 L125.1248,14.3163 C125.1768,14.7283 125.3798,15.0693 125.7348,15.3393 C126.0878,15.6103 126.5298,15.7463 127.0578,15.7463 C127.5728,15.7463 127.9758,15.6423 128.2658,15.4363 C128.5548,15.2303 128.6998,14.9663 128.6998,14.6443 C128.6998,14.2963 128.5228,14.0363 128.1688,13.8623 C127.8148,13.6873 127.2508,13.4983 126.4778,13.2923 C125.6788,13.0983 125.0258,12.8993 124.5168,12.6933 C124.0078,12.4873 123.5708,12.1703 123.2028,11.7463 C122.8358,11.3213 122.6528,10.7483 122.6528,10.0263 C122.6528,9.4343 122.8238,8.8933 123.1638,8.4033 C123.5058,7.9143 123.9948,7.5273 124.6328,7.2443 C125.2708,6.9603 126.0208,6.8193 126.8838,6.8193 C128.1588,6.8193 129.1768,7.1373 129.9368,7.7753 C130.6968,8.4133 131.1158,9.2723 131.1928,10.3543 L128.6038,10.3543 C128.5648,9.9293 128.3878,9.5913 128.0728,9.3403 C127.7558,9.0893 127.3338,8.9633 126.8068,8.9633 C126.3168,8.9633 125.9398,9.0533 125.6758,9.2343 C125.4118,9.4153 125.2808,9.6663 125.2808,9.9883 C125.2808,10.3483 125.4598,10.6223 125.8218,10.8083 C126.1818,10.9963 126.7418,11.1853 127.5018,11.3783 C128.2748,11.5723 128.9118,11.7723 129.4148,11.9773 C129.9168,12.1843 130.3518,12.5023 130.7188,12.9343 C131.0858,13.3663 131.2768,13.9363 131.2888,14.6443 C131.2888,15.2623 131.1178,15.8163 130.7778,16.3053 C130.4358,16.7953 129.9468,17.1783 129.3088,17.4563 C128.6708,17.7323 127.9268,17.8713 127.0768,17.8713 C126.2008,17.8713 125.4148,17.7123 124.7198,17.3973" id="Fill-10" fill="#0CA2D8" mask="url(#mask-2)"></path>
				<path d="M136.7569,9.2146 L136.7569,14.3936 C136.7569,14.7536 136.8439,15.0146 137.0179,15.1756 C137.1919,15.3366 137.4849,15.4166 137.8979,15.4166 L139.1529,15.4166 L139.1529,17.6966 L137.4529,17.6966 C135.1729,17.6966 134.0319,16.5896 134.0319,14.3736 L134.0319,9.2146 L132.7579,9.2146 L132.7579,6.9926 L134.0319,6.9926 L134.0319,4.3456 L136.7569,4.3456 L136.7569,6.9926 L139.1529,6.9926 L139.1529,9.2146 L136.7569,9.2146 Z" id="Fill-11" fill="#0CA2D8" mask="url(#mask-2)"></path>
				<path d="M141.2,17.697 L143.905,17.697 L143.905,6.993 L141.2,6.993 L141.2,17.697 Z M141.384,5.263 C141.068,4.961 140.91,4.584 140.91,4.133 C140.91,3.682 141.068,3.305 141.384,3.003 C141.699,2.7 142.096,2.549 142.572,2.549 C143.049,2.549 143.444,2.7 143.761,3.003 C144.076,3.305 144.234,3.682 144.234,4.133 C144.234,4.584 144.076,4.961 143.761,5.263 C143.444,5.566 143.049,5.718 142.572,5.718 C142.096,5.718 141.699,5.566 141.384,5.263 L141.384,5.263 Z" id="Fill-12" fill="#0CA2D8" mask="url(#mask-2)"></path>
				<path d="M155.6914,8.0457 C156.4764,8.8517 156.8704,9.9757 156.8704,11.4177 L156.8704,17.6967 L154.1654,17.6967 L154.1654,11.7847 C154.1654,10.9347 153.9524,10.2807 153.5274,9.8227 C153.1024,9.3657 152.5224,9.1377 151.7884,9.1377 C151.0414,9.1377 150.4524,9.3657 150.0204,9.8227 C149.5884,10.2807 149.3734,10.9347 149.3734,11.7847 L149.3734,17.6967 L146.6684,17.6967 L146.6684,6.9927 L149.3734,6.9927 L149.3734,8.3257 C149.7334,7.8617 150.1944,7.4987 150.7544,7.2337 C151.3154,6.9707 151.9294,6.8377 152.5994,6.8377 C153.8754,6.8377 154.9054,7.2407 155.6914,8.0457" id="Fill-13" fill="#0CA2D8" mask="url(#mask-2)"></path>
				<path d="M166.8799,10.6541 C166.6219,10.1841 166.2749,9.8231 165.8359,9.5721 C165.3989,9.3211 164.9279,9.1951 164.4259,9.1951 C163.9239,9.1951 163.4599,9.3181 163.0339,9.5621 C162.6089,9.8071 162.2649,10.1651 162.0009,10.6341 C161.7359,11.1051 161.6049,11.6621 161.6049,12.3061 C161.6049,12.9511 161.7359,13.5131 162.0009,13.9971 C162.2649,14.4801 162.6119,14.8501 163.0439,15.1081 C163.4759,15.3661 163.9369,15.4941 164.4259,15.4941 C164.9279,15.4941 165.3989,15.3691 165.8359,15.1181 C166.2749,14.8661 166.6219,14.5061 166.8799,14.0361 C167.1369,13.5651 167.2659,13.0021 167.2659,12.3441 C167.2659,11.6881 167.1369,11.1251 166.8799,10.6541 M165.8359,7.2921 C166.4419,7.6081 166.9179,8.0161 167.2659,8.5191 L167.2659,6.9931 L169.9899,6.9931 L169.9899,17.7741 C169.9899,18.7661 169.7909,19.6511 169.3919,20.4311 C168.9919,21.2111 168.3939,21.8291 167.5949,22.2861 C166.7959,22.7431 165.8299,22.9711 164.6959,22.9711 C163.1759,22.9711 161.9299,22.6181 160.9569,21.9091 C159.9839,21.2011 159.4339,20.2341 159.3059,19.0101 L161.9909,19.0101 C162.1329,19.5011 162.4389,19.8901 162.9089,20.1791 C163.3789,20.4691 163.9489,20.6151 164.6189,20.6151 C165.4039,20.6151 166.0419,20.3801 166.5319,19.9091 C167.0219,19.4391 167.2659,18.7271 167.2659,17.7741 L167.2659,16.1131 C166.9179,16.6151 166.4389,17.0341 165.8259,17.3691 C165.2149,17.7031 164.5159,17.8711 163.7309,17.8711 C162.8279,17.8711 162.0039,17.6391 161.2569,17.1751 C160.5099,16.7121 159.9209,16.0581 159.4889,15.2151 C159.0579,14.3711 158.8419,13.4011 158.8419,12.3061 C158.8419,11.2241 159.0579,10.2641 159.4889,9.4271 C159.9209,8.5901 160.5069,7.9461 161.2469,7.4951 C161.9879,7.0451 162.8159,6.8191 163.7309,6.8191 C164.5279,6.8191 165.2309,6.9761 165.8359,7.2921" id="Fill-14" fill="#0CA2D8" mask="url(#mask-2)"></path>
				<path d="M64.8174,42.0506 C64.0634,41.7286 63.4674,41.2646 63.0304,40.6586 C62.5914,40.0536 62.3664,39.3386 62.3534,38.5146 L65.2524,38.5146 C65.2904,39.0686 65.4864,39.5066 65.8404,39.8286 C66.1954,40.1506 66.6814,40.3116 67.2994,40.3116 C67.9304,40.3116 68.4264,40.1596 68.7884,39.8576 C69.1484,39.5546 69.3294,39.1586 69.3294,38.6686 C69.3294,38.2706 69.2064,37.9416 68.9624,37.6836 C68.7164,37.4266 68.4114,37.2236 68.0444,37.0746 C67.6764,36.9276 67.1714,36.7626 66.5274,36.5826 C65.6514,36.3246 64.9394,36.0706 64.3914,35.8196 C63.8444,35.5686 63.3744,35.1886 62.9814,34.6796 C62.5884,34.1706 62.3924,33.4906 62.3924,32.6406 C62.3924,31.8426 62.5914,31.1466 62.9914,30.5536 C63.3904,29.9616 63.9504,29.5076 64.6714,29.1926 C65.3934,28.8756 66.2174,28.7186 67.1454,28.7186 C68.5364,28.7186 69.6674,29.0566 70.5364,29.7336 C71.4064,30.4086 71.8854,31.3526 71.9754,32.5636 L69.0004,32.5636 C68.9744,32.0996 68.7784,31.7166 68.4114,31.4136 C68.0444,31.1116 67.5574,30.9596 66.9524,30.9596 C66.4234,30.9596 66.0024,31.0946 65.6864,31.3646 C65.3714,31.6356 65.2134,32.0296 65.2134,32.5436 C65.2134,32.9046 65.3324,33.2036 65.5704,33.4426 C65.8084,33.6816 66.1054,33.8736 66.4604,34.0226 C66.8134,34.1706 67.3124,34.3406 67.9574,34.5336 C68.8334,34.7916 69.5474,35.0496 70.1014,35.3076 C70.6554,35.5656 71.1314,35.9506 71.5314,36.4666 C71.9304,36.9826 72.1304,37.6576 72.1304,38.4946 C72.1304,39.2166 71.9434,39.8866 71.5704,40.5046 C71.1964,41.1226 70.6494,41.6156 69.9274,41.9836 C69.2064,42.3506 68.3494,42.5326 67.3584,42.5326 C66.4184,42.5326 65.5704,42.3726 64.8174,42.0506" id="Fill-15" fill="#020303" mask="url(#mask-2)"></path>
				<path d="M91.0362,32.7469 C91.8422,33.5529 92.2442,34.6769 92.2442,36.1189 L92.2442,42.3979 L89.5392,42.3979 L89.5392,36.4859 C89.5392,35.6479 89.3262,35.0079 88.9012,34.5629 C88.4762,34.1189 87.8962,33.8959 87.1622,33.8959 C86.4292,33.8959 85.8462,34.1189 85.4142,34.5629 C84.9822,35.0079 84.7662,35.6479 84.7662,36.4859 L84.7662,42.3979 L82.0612,42.3979 L82.0612,36.4859 C82.0612,35.6479 81.8482,35.0079 81.4242,34.5629 C80.9992,34.1189 80.4192,33.8959 79.6842,33.8959 C78.9372,33.8959 78.3482,34.1189 77.9172,34.5629 C77.4852,35.0079 77.2692,35.6479 77.2692,36.4859 L77.2692,42.3979 L74.5642,42.3979 L74.5642,31.6939 L77.2692,31.6939 L77.2692,32.9879 C77.6172,32.5379 78.0642,32.1839 78.6122,31.9259 C79.1602,31.6679 79.7632,31.5389 80.4192,31.5389 C81.2572,31.5389 82.0042,31.7169 82.6602,32.0709 C83.3172,32.4259 83.8262,32.9309 84.1862,33.5879 C84.5352,32.9699 85.0402,32.4739 85.7042,32.0999 C86.3672,31.7259 87.0852,31.5389 87.8582,31.5389 C89.1722,31.5389 90.2312,31.9419 91.0362,32.7469" id="Fill-16" fill="#020303" mask="url(#mask-2)"></path>
				<path d="M94.91,42.398 L97.615,42.398 L97.615,31.694 L94.91,31.694 L94.91,42.398 Z M95.094,29.965 C94.778,29.662 94.62,29.285 94.62,28.834 C94.62,28.384 94.778,28.007 95.094,27.704 C95.409,27.401 95.806,27.25 96.282,27.25 C96.759,27.25 97.154,27.401 97.471,27.704 C97.786,28.007 97.944,28.384 97.944,28.834 C97.944,29.285 97.786,29.662 97.471,29.965 C97.154,30.267 96.759,30.419 96.282,30.419 C95.806,30.419 95.409,30.267 95.094,29.965 L95.094,29.965 Z" id="Fill-17" fill="#020303" mask="url(#mask-2)"></path>
				<polygon id="Fill-18" fill="#020303" mask="url(#mask-2)" points="100.379 42.398 103.084 42.398 103.084 28.1 100.379 28.1"></polygon>
				<path d="M112.9961,36.0418 C112.9831,35.3458 112.7311,34.7888 112.2421,34.3698 C111.7531,33.9518 111.1531,33.7418 110.4451,33.7418 C109.7751,33.7418 109.2121,33.9448 108.7551,34.3508 C108.2981,34.7568 108.0171,35.3198 107.9141,36.0418 L112.9961,36.0418 Z M115.7211,37.8568 L107.8941,37.8568 C107.9591,38.6308 108.2291,39.2358 108.7061,39.6738 C109.1831,40.1118 109.7691,40.3308 110.4651,40.3308 C111.4701,40.3308 112.1841,39.8988 112.6091,39.0358 L115.5271,39.0358 C115.2181,40.0668 114.6251,40.9138 113.7501,41.5768 C112.8731,42.2408 111.7981,42.5718 110.5221,42.5718 C109.4921,42.5718 108.5681,42.3438 107.7501,41.8868 C106.9321,41.4298 106.2941,40.7818 105.8371,39.9438 C105.3801,39.1068 105.1511,38.1418 105.1511,37.0458 C105.1511,35.9378 105.3771,34.9658 105.8271,34.1288 C106.2781,33.2908 106.9091,32.6468 107.7211,32.1958 C108.5321,31.7458 109.4671,31.5208 110.5221,31.5208 C111.5401,31.5208 112.4511,31.7388 113.2571,32.1768 C114.0611,32.6148 114.6861,33.2368 115.1311,34.0418 C115.5751,34.8468 115.7981,35.7708 115.7981,36.8138 C115.7981,37.2008 115.7711,37.5488 115.7211,37.8568 L115.7211,37.8568 Z" id="Fill-19" fill="#020303" mask="url(#mask-2)"></path>
				<path d="M119.6035,42.0984 C118.9085,41.7834 118.3575,41.3554 117.9515,40.8144 C117.5455,40.2734 117.3235,39.6734 117.2855,39.0174 L120.0085,39.0174 C120.0605,39.4294 120.2635,39.7704 120.6185,40.0404 C120.9715,40.3114 121.4135,40.4474 121.9415,40.4474 C122.4565,40.4474 122.8595,40.3434 123.1495,40.1374 C123.4385,39.9314 123.5835,39.6674 123.5835,39.3454 C123.5835,38.9974 123.4065,38.7374 123.0525,38.5634 C122.6985,38.3884 122.1345,38.1994 121.3615,37.9934 C120.5625,37.7994 119.9095,37.6004 119.4005,37.3944 C118.8915,37.1884 118.4545,36.8714 118.0865,36.4474 C117.7195,36.0224 117.5365,35.4494 117.5365,34.7274 C117.5365,34.1354 117.7075,33.5944 118.0475,33.1044 C118.3895,32.6154 118.8785,32.2284 119.5165,31.9454 C120.1545,31.6614 120.9045,31.5204 121.7675,31.5204 C123.0425,31.5204 124.0605,31.8384 124.8205,32.4764 C125.5805,33.1144 125.9995,33.9734 126.0765,35.0554 L123.4875,35.0554 C123.4485,34.6304 123.2715,34.2924 122.9565,34.0414 C122.6395,33.7904 122.2175,33.6644 121.6905,33.6644 C121.2005,33.6644 120.8235,33.7544 120.5595,33.9354 C120.2955,34.1164 120.1645,34.3674 120.1645,34.6894 C120.1645,35.0494 120.3435,35.3234 120.7055,35.5094 C121.0655,35.6974 121.6255,35.8864 122.3855,36.0794 C123.1585,36.2734 123.7955,36.4734 124.2985,36.6784 C124.8005,36.8854 125.2355,37.2034 125.6025,37.6354 C125.9695,38.0674 126.1605,38.6374 126.1725,39.3454 C126.1725,39.9634 126.0015,40.5174 125.6615,41.0064 C125.3195,41.4964 124.8305,41.8794 124.1925,42.1574 C123.5545,42.4334 122.8105,42.5724 121.9605,42.5724 C121.0845,42.5724 120.2985,42.4134 119.6035,42.0984" id="Fill-20" fill="#020303" mask="url(#mask-2)"></path>
				<path d="M135.003,31.3846 L131.042,37.2976 L135.003,37.2976 L135.003,31.3846 Z M128.066,39.6546 L128.066,37.5296 L134.385,28.4866 L137.534,28.4866 L137.534,37.2976 L139.234,37.2976 L139.234,39.6546 L137.534,39.6546 L137.534,42.3986 L134.829,42.3986 L134.829,39.6546 L128.066,39.6546 Z" id="Fill-21" fill="#020303" mask="url(#mask-2)"></path>
				<path d="M143.9785,33.8983 L143.9785,37.2773 C143.9785,38.1953 144.2175,38.8963 144.6955,39.3813 C145.1735,39.8673 145.8465,40.1093 146.7125,40.1093 C147.5915,40.1093 148.2705,39.8673 148.7495,39.3813 C149.2275,38.8963 149.4665,38.1953 149.4665,37.2773 L149.4665,33.8983 L152.2035,33.8983 L152.2035,37.2573 C152.2035,38.4093 151.9535,39.3813 151.4565,40.1763 C150.9575,40.9723 150.2905,41.5703 149.4575,41.9703 C148.6245,42.3723 147.6965,42.5723 146.6745,42.5723 C145.6655,42.5723 144.7505,42.3723 143.9295,41.9703 C143.1095,41.5703 142.4585,40.9723 141.9805,40.1763 C141.5015,39.3813 141.2625,38.4093 141.2625,37.2573 L141.2625,33.8983 L143.9785,33.8983 Z" id="Fill-22" fill="#020303" mask="url(#mask-2)"></path>
				<path d="M141.4297,31.201 C141.1147,30.898 140.9557,30.521 140.9557,30.07 C140.9557,29.62 141.1147,29.243 141.4297,28.94 C141.7447,28.638 142.1417,28.486 142.6177,28.486 C143.0947,28.486 143.4907,28.638 143.8067,28.94 C144.1217,29.243 144.2807,29.62 144.2807,30.07 C144.2807,30.521 144.1217,30.898 143.8067,31.201 C143.4907,31.504 143.0947,31.655 142.6177,31.655 C142.1417,31.655 141.7447,31.504 141.4297,31.201" id="Fill-23" fill="#020303" mask="url(#mask-2)"></path>
				<path d="M149.6905,31.201 C149.3755,30.898 149.2165,30.521 149.2165,30.07 C149.2165,29.62 149.3755,29.243 149.6905,28.94 C150.0055,28.638 150.4025,28.486 150.8785,28.486 C151.3555,28.486 151.7515,28.638 152.0675,28.94 C152.3825,29.243 152.5415,29.62 152.5415,30.07 C152.5415,30.521 152.3825,30.898 152.0675,31.201 C151.7515,31.504 151.3555,31.655 150.8785,31.655 C150.4025,31.655 150.0055,31.504 149.6905,31.201" id="Fill-24" fill="#020303" mask="url(#mask-2)"></path>
				<path d="M4.1836,27.0457 C5.0836,32.0797 6.7076,36.1827 9.0556,39.3527 C10.7976,41.7017 12.7736,44.1297 15.6776,44.1297 C18.6856,44.1297 19.9516,40.1847 20.7646,36.7227 C21.6936,32.7687 24.9556,32.9037 25.7776,36.7227 C26.5986,40.5407 27.8276,44.1297 31.3246,44.1297 C34.2156,44.1297 36.2016,41.6077 37.6156,39.3527 C40.2116,35.2137 41.9796,30.8407 42.8646,27.0457" id="Stroke-25" stroke="#0CA2D8" stroke-width="3.74" stroke-linecap="round" mask="url(#mask-2)"></path>
				<path d="M44.2246,20.2493 C45.4246,14.8693 44.9536,10.4523 42.8126,6.9993 C39.5996,1.8183 33.3756,0.9063 28.7406,5.7603 C25.1006,9.5703 21.6996,9.5703 17.4516,5.7603 C12.0216,0.8883 5.3646,1.8183 2.8696,7.0833 C-0.4464,14.0783 4.9486,20.0853 12.3176,22.3813 C19.6866,24.6763 27.3316,24.0323 33.8856,21.5173" id="Stroke-26" stroke="#0CA2D8" stroke-width="3.74" stroke-linecap="round" mask="url(#mask-2)"></path>
				<path d="M32.9766,18.1199 C36.1656,18.8179 37.0486,21.4579 36.1656,23.9039" id="Stroke-27" stroke="#0CA2D8" stroke-width="3.117" stroke-linecap="round" mask="url(#mask-2)"></path>
			</g>
		</g>
	</g>
</svg>
